<svg width="24" height="24" viewBox="0 0 24 24" fill="none" xmlns="http://www.w3.org/2000/svg">
<g id="shuttle 1" clip-path="url(#clip0_1_1335)">
<path id="Vector" d="M23.9716 1.79177C23.9197 0.838429 23.1615 0.0803194 22.2081 0.0282882C20.2845 -0.0768056 16.5202 0.0254289 12.9208 1.88716C11.0858 2.83629 9.14522 4.44546 7.59652 6.30208C7.57744 6.32496 7.55888 6.34798 7.53994 6.3709L4.02525 6.6424C3.44672 6.68712 2.93142 6.99035 2.61145 7.47429L0.213611 11.1011C-0.0290606 11.4681 -0.0676387 11.9275 0.110346 12.3298C0.288377 12.7322 0.654189 13.0126 1.08896 13.0799L4.0501 13.5386C4.03964 13.5961 4.02914 13.6536 4.01953 13.7112C3.92095 14.3009 4.11633 14.9072 4.54224 15.333L8.66686 19.4577C9.01997 19.8108 9.49711 20.0055 9.98602 20.0055C10.0867 20.0055 10.188 19.9972 10.2887 19.9804C10.3463 19.9707 10.4038 19.9602 10.4614 19.9498L10.92 22.911C10.9874 23.3457 11.2678 23.7116 11.67 23.8896C11.8374 23.9636 12.0146 24.0002 12.1909 24.0002C12.4386 24.0002 12.6845 23.9281 12.8988 23.7864L16.5256 21.3885C17.0096 21.0685 17.3128 20.5532 17.3574 19.9747L17.6289 16.46C17.6518 16.4411 17.6749 16.4225 17.6978 16.4035C19.5544 14.8548 21.1636 12.9141 22.1127 11.0792C23.9745 7.47958 24.0766 3.71529 23.9716 1.79177ZM15.75 20.2154L12.2808 22.5091L11.8338 19.6233C13.3 19.1921 14.7505 18.5017 16.1323 17.5767L15.9555 19.8663C15.9444 20.0091 15.8695 20.1364 15.75 20.2154ZM9.66122 18.4633L5.53655 14.3387C5.43131 14.2334 5.38266 14.0855 5.40652 13.943C5.52914 13.2098 5.71969 12.5118 5.95556 11.8542L12.1444 18.043C11.3546 18.3259 10.6472 18.4946 10.0568 18.5934C9.91416 18.6171 9.76645 18.5686 9.66122 18.4633ZM4.13358 8.04448L6.42314 7.86762C5.49811 9.24944 4.80764 10.6999 4.37653 12.1661L1.49072 11.7192L3.7845 8.24988C3.86353 8.13035 3.9908 8.05549 4.13358 8.04448ZM16.7971 15.3235C15.6612 16.271 14.5585 16.9563 13.5422 17.4522L6.54745 10.4575C7.19705 9.13071 7.98985 8.02591 8.67638 7.20288C10.1096 5.48468 11.8921 4.00244 13.5669 3.13619C16.8704 1.42746 20.3509 1.33544 22.1316 1.43238C22.3673 1.44523 22.5547 1.63268 22.5675 1.86841C22.6646 3.6491 22.5724 7.12957 20.8637 10.4331C19.9975 12.1078 18.5153 13.8903 16.7971 15.3235Z" fill="#FFA155"/>
<path id="Vector_2" d="M16.4401 11.0739C17.3402 11.0738 18.2407 10.7311 18.9259 10.0458C19.5899 9.38186 19.9556 8.49901 19.9556 7.56001C19.9556 6.62101 19.5899 5.73817 18.9259 5.07418C17.5552 3.70342 15.3249 3.70351 13.9543 5.07418C13.2902 5.73817 12.9246 6.62101 12.9246 7.56001C12.9246 8.49901 13.2903 9.38186 13.9543 10.0458C14.6397 10.7312 15.5397 11.0739 16.4401 11.0739ZM14.9485 6.06849C15.3597 5.65726 15.8999 5.45167 16.44 5.45167C16.9802 5.45167 17.5203 5.65726 17.9315 6.06849C18.3299 6.46689 18.5493 6.99657 18.5493 7.55996C18.5493 8.12335 18.3299 8.65309 17.9315 9.05148C17.1091 9.8739 15.7709 9.87386 14.9485 9.05148C14.5501 8.65309 14.3307 8.1234 14.3307 7.56001C14.3307 6.99662 14.5501 6.46689 14.9485 6.06849Z" fill="#444CFC"/>
<path id="Vector_3" d="M0.717262 19.7783C0.897215 19.7783 1.07717 19.7097 1.21442 19.5723L3.51003 17.2767C3.78462 17.0021 3.78462 16.557 3.51003 16.2824C3.23548 16.0078 2.79026 16.0078 2.51567 16.2824L0.220105 18.578C-0.0544883 18.8526 -0.0544883 19.2977 0.220105 19.5723C0.357355 19.7096 0.537309 19.7783 0.717262 19.7783Z" fill="#FFA155"/>
<path id="Vector_4" d="M5.61377 18.3862C5.33923 18.1116 4.89401 18.1116 4.61941 18.3862L0.205945 22.7998C-0.0686484 23.0744 -0.0686484 23.5195 0.205945 23.7941C0.343242 23.9314 0.523148 24 0.703101 24C0.883055 24 1.06301 23.9314 1.20026 23.7941L5.61373 19.3806C5.88837 19.106 5.88837 18.6608 5.61377 18.3862Z" fill="#FFA155"/>
<path id="Vector_5" d="M6.72323 20.49L4.42762 22.7856C4.15303 23.0602 4.15303 23.5054 4.42762 23.78C4.56492 23.9173 4.74487 23.9859 4.92478 23.9859C5.10469 23.9859 5.28469 23.9173 5.42194 23.78L7.71754 21.4844C7.99214 21.2098 7.99214 20.7646 7.71754 20.49C7.443 20.2154 6.99778 20.2154 6.72323 20.49Z" fill="#FFA155"/>
</g>
<defs>
<clipPath id="clip0_1_1335">
<rect width="24" height="24" fill="white"/>
</clipPath>
</defs>
</svg>
