<svg width="22" height="22" viewBox="0 0 22 22" fill="none" xmlns="http://www.w3.org/2000/svg">
<g id="support 1">
<path id="Vector" fill-rule="evenodd" clip-rule="evenodd" d="M4.96329 7.99563H3.99622C3.97519 7.99563 3.95574 8.01517 3.95574 8.03595V10.7357C3.95574 10.7566 3.97519 10.7759 3.99622 10.7759H4.96329V7.99563ZM16.3258 6.78681H17.2927C17.9809 6.78681 18.5417 7.34765 18.5417 8.03595V10.7356C18.5417 11.4238 17.9809 11.9846 17.2927 11.9846H15.6222C15.1244 12.7756 14.4218 13.4666 13.6664 14.0111C13.6664 14.9805 14.3687 15.7721 15.3586 15.7721C18.2499 15.7721 20.5968 16.5344 20.5968 20.0431C20.5968 20.3769 20.3262 20.6475 19.9922 20.6475C19.6586 20.6475 19.3879 20.3769 19.3879 20.0431C19.3879 17.2287 17.5222 16.9808 15.3586 16.9808C14.8789 16.9808 14.4258 16.8634 14.0267 16.656L10.7984 18.9935C10.5922 19.1495 10.3004 19.1604 10.0802 19.0007L7.00513 16.774C6.67263 16.9074 6.30977 16.9808 5.9302 16.9808C3.76686 16.9808 1.90104 17.2287 1.90104 20.0431C1.90104 20.3769 1.63035 20.6475 1.29667 20.6475C0.962909 20.6475 0.692139 20.3769 0.692139 20.0431C0.692139 16.5344 3.03911 15.7721 5.9302 15.7721C6.81915 15.7721 7.55302 15.0787 7.61781 14.2055C6.75601 13.6396 5.9506 12.8803 5.43172 11.9846H3.99622C3.30799 11.9846 2.74716 11.4238 2.74716 10.7356V8.03595C2.74716 7.34765 3.30792 6.78681 3.99622 6.78681H4.96329V5.92454C4.96329 3.01846 7.31057 0.62207 10.2102 0.62207H11.0786C13.9782 0.62207 16.3258 3.01877 16.3258 5.92469V6.78681ZM15.117 10.7764V6.85843C13.4763 7.06943 11.827 6.60585 10.5411 5.57478C9.34708 6.52953 7.79712 7.03609 6.17211 6.88125V10.7C6.4348 11.5392 7.07235 12.2797 7.80709 12.8567C8.80883 13.6435 9.9469 14.1083 10.5702 14.1083C11.2021 14.1083 12.4822 13.5195 13.5559 12.5583C13.7566 12.379 13.9479 12.1871 14.1243 11.9849H12.2561C12.0724 12.2294 11.7799 12.3877 11.4503 12.3877C10.8939 12.3877 10.443 11.9366 10.443 11.3805C10.443 10.824 10.8939 10.373 11.4503 10.373C11.7799 10.373 12.0724 10.5313 12.2561 10.776C13.0579 10.7759 14.394 10.7764 15.117 10.7764ZM17.2927 7.99563H16.3258V10.7759H17.2927C17.3136 10.7759 17.333 10.7566 17.333 10.7356V8.03595C17.333 8.01517 17.3136 7.99563 17.2927 7.99563ZM15.1072 5.64184C15.0016 4.08742 14.0323 2.7578 12.6729 2.16324C12.4578 3.13156 12.0156 4.00129 11.4113 4.72356C12.4645 5.51493 13.7966 5.84931 15.1072 5.64184ZM11.5056 1.8538C11.3654 1.83881 11.2229 1.83097 11.0786 1.83097H10.2102C8.05487 1.83097 6.31032 3.54376 6.17995 5.66961C8.67956 5.9603 10.9875 4.29097 11.5056 1.8538ZM8.0595 16.0473L10.4343 17.7669L13.0694 15.8589C12.8099 15.5256 12.6213 15.1347 12.5266 14.709C11.7635 15.0994 11.0473 15.3168 10.5702 15.3168C10.0987 15.3168 9.43728 15.142 8.73462 14.8226C8.61148 15.2861 8.37608 15.7049 8.0595 16.0473Z" fill="#FFA155"/>
</g>
</svg>
